<svg id="Capa_1" data-name="Capa 1" xmlns="http://www.w3.org/2000/svg" viewBox="0 0 232.73 100.7"><defs><style>.cls-1{fill:#fff;}</style></defs><title>logo</title><path d="M232.73,100.7H0V0H232.73ZM31.09,58c0-1-.12-2-.13-3-.05-7.95,3.28-11.28,11.22-11.34,2.18,0,4.51.2,6.52-.46a108.29,108.29,0,0,0,14.15-5.52,85.16,85.16,0,0,1,56.43-7.33c8.63,1.78,17.16,4,25.42,6,.15.24.09,0,0-.07C128.27,25,110.09,20,90.28,21.66,76.52,22.85,63.75,27.5,51.46,33.83c-3.83,2-8.51,2.66-12.89,3.14-3.27.35-6.68-.59-10.24-1C25.24,43.76,26.79,51,31.09,58Zm167-5.23a14.39,14.39,0,0,0-1.08-1.13c-8.42-6.87-18.32-9.91-28.92-10.85-3.72-.32-7.88-.7-11.22.58-21,8-42.46,8.23-64.2,4.39-5.63-1-11.17-2.47-17.11-3.81a8,8,0,0,0,1,.71A99.59,99.59,0,0,0,113.75,52a118.74,118.74,0,0,0,38.56-3.47c9.24-2.51,18.4-3.18,27.69-.67ZM28.07,77.36c4.31-1.64,6.11.79,7.71,3.61,1,1.73,2.16,3.1,4.67,1.94l-4.1-6.2c2.51-1.8,4.44-3.89,3.21-6.67-.73-1.66-2.64-3.55-4.31-3.88-3.13-.61-6.48-.17-10-.17,0,5.44-.07,10.61.09,15.76,0,.63,1.32,1.22,2,1.83l.74-.69Zm27.39,6c5.5.11,9.76-3.44,9.91-8.24.16-5.2-3.72-9-9.29-9.15-5.84-.14-10,3.46-10,8.68C46,79.51,50,83.2,55.46,83.31Zm146.71-.37-4.09-6.19c.75-.63,1.67-1,1.88-1.65.6-1.79,1.64-3.94,1.11-5.46a6.38,6.38,0,0,0-4.23-3.52c-3.17-.55-6.5-.16-9.76-.16V83.29l2.71-.16V77.25c3.42-1,5.66-.18,7.18,2.87C197.89,82,198.92,84.3,202.17,82.94Zm-25.59-3.75c1.51,1.44,1,5.22,4.89,3.75-2.35-5.3-4.61-10.5-7-15.67-.79-1.72-3.21-2.06-3.95-.49C168,72.12,165.67,77.56,163.23,83c4,1.22,3.26-2.57,4.78-3.83Zm-86,3.62.75.94c.9-.72,2.27-1.27,2.6-2.2.75-2.11,2-2.69,4.07-2.46a12.91,12.91,0,0,0,3,0c2.12-.25,3.61.21,4.2,2.58.46,1.81,1.76,2.07,3.53,1.16-2.34-5.27-4.58-10.47-7-15.58A3,3,0,0,0,99.43,66a2.57,2.57,0,0,0-1.89,1.32C95.14,72.46,92.87,77.64,90.56,82.81Zm66.75-12.23c1.92-1.71,2-2.08.11-3.13a10.28,10.28,0,0,0-9.77-.62,8.53,8.53,0,0,0-2,14.54c3.06,2.43,8.73,2.7,11.83.36.6-.45.58-1.72,1.06-3.34-6.32,2.87-10,2.6-12.22-.34a5.83,5.83,0,0,1,.34-7.2C149.06,68.1,152.45,68,157.31,70.58ZM78.72,73.21c-3.53-1.88-3.4-7.9-9.22-7.17,3.26,5.67,9.78,9.48,7.62,16.9,2.48.87,3-.14,2.8-1.87-.5-3.53.76-6.35,3-9,1.55-1.77,2.78-3.82,4.46-6.16-1.23,0-2.34-.32-2.68,0C82.65,68.31,80.71,70.79,78.72,73.21Zm35.41,9.91h12.79l.46-.94c-.8-.5-1.58-1.35-2.41-1.41-2.57-.19-5.15-.07-8.06-.07V66.09l-.75-.52c-.68.55-1.92,1.09-1.94,1.66C114.07,72.5,114.13,77.77,114.13,83.12Z"/><path class="cls-1" d="M31.09,58c-4.3-7-5.85-14.26-2.76-22,3.56.38,7,1.32,10.24,1,4.38-.48,9.06-1.16,12.89-3.14,12.29-6.33,25.06-11,38.82-12.17,19.81-1.71,38,3.31,54.37,14.66.14.1.2.31,0,.07-8.26-2-16.79-4.22-25.42-6a85.16,85.16,0,0,0-56.43,7.33A108.29,108.29,0,0,1,48.7,43.24c-2,.66-4.34.44-6.52.46C34.24,43.76,30.91,47.09,31,55,31,56,31.05,57,31.09,58Z"/><path class="cls-1" d="M198.14,52.79,180,47.88c-9.29-2.51-18.45-1.84-27.69.67A118.74,118.74,0,0,1,113.75,52a99.59,99.59,0,0,1-37.13-9.34,8,8,0,0,1-1-.71c5.94,1.34,11.48,2.81,17.11,3.81,21.74,3.84,43.18,3.64,64.2-4.39,3.34-1.28,7.5-.9,11.22-.58,10.6.94,20.5,4,28.92,10.85A14.39,14.39,0,0,1,198.14,52.79Z"/><path class="cls-1" d="M28.07,77.36v5.53l-.74.69c-.71-.61-2-1.2-2-1.83-.16-5.15-.09-10.32-.09-15.76,3.56,0,6.91-.44,10,.17,1.67.33,3.58,2.22,4.31,3.88,1.23,2.78-.7,4.87-3.21,6.67l4.1,6.2c-2.51,1.16-3.68-.21-4.67-1.94C34.18,78.15,32.38,75.72,28.07,77.36Zm.13-3.09c2.07,0,4,.35,5.78-.12a4.5,4.5,0,0,0,2.74-2.8c.16-.68-1.45-2.35-2.49-2.59-1.87-.44-3.91-.12-6-.12Z"/><path class="cls-1" d="M55.46,83.31C50,83.2,46,79.51,46,74.6c0-5.22,4.21-8.82,10-8.68,5.57.12,9.45,4,9.29,9.15C65.22,79.87,61,83.42,55.46,83.31Zm7-8.58c.06-3.52-2.7-6.08-6.63-6.15s-6.91,2.34-7,5.76c-.12,3.61,2.5,6.14,6.49,6.25C59.58,80.71,62.44,78.37,62.51,74.73Z"/><path class="cls-1" d="M202.17,82.94c-3.25,1.36-4.28-1-5.2-2.82-1.52-3.05-3.76-3.83-7.18-2.87v5.88l-2.71.16V66c3.26,0,6.59-.39,9.76.16a6.38,6.38,0,0,1,4.23,3.52c.53,1.52-.51,3.67-1.11,5.46-.21.63-1.13,1-1.88,1.65Zm-12.38-8.69c2.25,0,4.24.36,6-.13a4.39,4.39,0,0,0,2.62-2.93c.13-.69-1.56-2.25-2.64-2.49-1.87-.42-3.91-.11-6-.11Z"/><path class="cls-1" d="M176.58,79.19H168c-1.52,1.26-.8,5-4.78,3.83,2.44-5.46,4.79-10.9,7.33-16.24.74-1.57,3.16-1.23,3.95.49,2.35,5.17,4.61,10.37,7,15.67C177.57,84.41,178.09,80.63,176.58,79.19ZM172.3,69.1c-1.17,2.68-2.1,4.79-3.15,7.18h6.31Z"/><path class="cls-1" d="M90.56,82.81c2.31-5.17,4.58-10.35,7-15.48A2.57,2.57,0,0,1,99.43,66a3,3,0,0,1,2.28,1.25c2.4,5.11,4.64,10.31,7,15.58-1.77.91-3.07.65-3.53-1.16-.59-2.37-2.08-2.83-4.2-2.58a12.91,12.91,0,0,1-3,0c-2-.23-3.32.35-4.07,2.46-.33.93-1.7,1.48-2.6,2.2Zm5.85-6.59h6.31l-3.21-7C98.35,71.83,97.44,73.88,96.41,76.22Z"/><path class="cls-1" d="M157.31,70.58c-4.86-2.56-8.25-2.48-10.65.27a5.83,5.83,0,0,0-.34,7.2c2.23,2.94,5.9,3.21,12.22.34-.48,1.62-.46,2.89-1.06,3.34-3.1,2.34-8.77,2.07-11.83-.36a8.53,8.53,0,0,1,2-14.54,10.28,10.28,0,0,1,9.77.62C159.28,68.5,159.23,68.87,157.31,70.58Z"/><path class="cls-1" d="M78.72,73.21c2-2.42,3.93-4.9,6-7.21.34-.37,1.45,0,2.68,0-1.68,2.34-2.91,4.39-4.46,6.16-2.29,2.61-3.55,5.43-3,9,.25,1.73-.32,2.74-2.8,1.87,2.16-7.42-4.36-11.23-7.62-16.9C75.32,65.31,75.19,71.33,78.72,73.21Z"/><path class="cls-1" d="M114.13,83.12c0-5.35-.06-10.62.09-15.89,0-.57,1.26-1.11,1.94-1.66l.75.52V80.7c2.91,0,5.49-.12,8.06.07.83.06,1.61.91,2.41,1.41l-.46.94Z"/><path d="M28.2,74.27V68.64c2.12,0,4.16-.32,6,.12,1,.24,2.65,1.91,2.49,2.59A4.5,4.5,0,0,1,34,74.15C32.23,74.62,30.27,74.27,28.2,74.27Z"/><path d="M62.51,74.73c-.07,3.64-2.93,6-7.17,5.86-4-.11-6.61-2.64-6.49-6.25.12-3.42,3.06-5.83,7-5.76S62.57,71.21,62.51,74.73Z"/><path d="M189.79,74.25V68.59c2.06,0,4.1-.31,6,.11,1.08.24,2.77,1.8,2.64,2.49a4.39,4.39,0,0,1-2.62,2.93C194,74.61,192,74.25,189.79,74.25Z"/><path d="M172.3,69.1l3.16,7.18h-6.31C170.2,73.89,171.13,71.78,172.3,69.1Z"/><path d="M96.41,76.22c1-2.34,1.94-4.39,3.1-7l3.21,7Z"/></svg>